<svg version="1.1" id="Layer_1" xmlns="http://www.w3.org/2000/svg" xmlns:xlink="http://www.w3.org/1999/xlink" x="0px" y="0px"
	 width="100%" viewBox="0 0 500 500" enable-background="new 0 0 500 500" xml:space="preserve">
<path fill="#000000" opacity="1.000000" stroke="none" 
	d="
M236.000000,501.000000 
	C157.333359,501.000000 79.166702,501.000000 1.000042,501.000000 
	C1.000028,334.333405 1.000028,167.666779 1.000014,1.000131 
	C167.666565,1.000088 334.333130,1.000088 500.999756,1.000044 
	C500.999847,167.666519 500.999847,334.333038 500.999939,500.999786 
	C412.833344,501.000000 324.666656,501.000000 236.000000,501.000000 
M220.679459,233.719742 
	C223.724731,229.818268 226.770004,225.916794 230.103363,221.390259 
	C233.602066,216.878998 237.445923,212.591324 240.538788,207.817154 
	C252.883881,188.761154 255.506592,166.386887 242.269150,149.450256 
	C228.580704,131.936584 203.131012,126.720589 184.645248,139.246979 
	C177.793106,143.890167 172.598434,150.979385 166.582642,157.018570 
	C165.515305,155.578583 163.703079,153.212173 161.973938,150.786530 
	C155.875656,142.231964 147.784714,136.712524 137.632233,133.838226 
	C130.153824,131.721008 122.834930,131.961655 115.562126,134.071350 
	C97.602036,139.281174 84.941269,154.179764 83.988808,173.662064 
	C83.271858,188.327179 89.979561,200.365753 97.059441,212.366821 
	C99.225204,216.038010 101.922478,217.898056 106.998810,216.933334 
	C117.522522,214.836685 119.374809,213.672806 119.021584,204.032578 
	C118.808220,198.209381 119.018875,192.371719 118.968933,186.541153 
	C118.930031,181.999939 121.155701,179.910767 125.641075,179.956528 
	C130.638458,180.007523 135.637970,179.894012 140.634476,179.977264 
	C147.419662,180.090347 150.904846,183.565308 151.005722,190.335434 
	C151.092606,196.165176 151.009583,201.997223 151.040848,207.828064 
	C151.065369,212.400314 153.339264,214.800858 157.972900,214.988632 
	C164.903625,215.269516 171.828674,215.714584 178.761200,215.918396 
	C183.175278,216.048172 185.315399,217.657761 185.120117,222.511353 
	C184.792191,230.661636 185.039658,238.834473 185.012985,246.997711 
	C184.995773,252.261490 183.225281,254.000351 177.834473,254.031723 
	C171.170761,254.070480 164.478348,253.708664 157.858078,254.250183 
	C155.509689,254.442276 151.574768,256.628540 151.445709,258.163544 
	C151.166519,261.483612 148.935898,265.602539 153.038116,268.567078 
	C156.760864,271.257355 160.259277,274.263580 163.798660,277.200317 
	C166.344040,279.312256 168.781418,279.242065 171.255585,277.152588 
	C182.439438,267.707733 193.624344,258.264099 205.517273,248.820190 
	C210.364731,243.898346 215.212204,238.976517 220.679459,233.719742 
z"/>
<path fill="#2AAADA" opacity="1.000000" stroke="none" 
	d="
M204.808868,248.820038 
	C193.624344,258.264099 182.439438,267.707733 171.255585,277.152588 
	C168.781418,279.242065 166.344040,279.312256 163.798660,277.200317 
	C160.259277,274.263580 156.760864,271.257355 153.038116,268.567078 
	C148.935898,265.602539 151.166519,261.483612 151.445709,258.163544 
	C151.574768,256.628540 155.509689,254.442276 157.858078,254.250183 
	C164.478348,253.708664 171.170761,254.070480 177.834473,254.031723 
	C183.225281,254.000351 184.995773,252.261490 185.012985,246.997711 
	C185.039658,238.834473 184.792191,230.661636 185.120117,222.511353 
	C185.315399,217.657761 183.175278,216.048172 178.761200,215.918396 
	C171.828674,215.714584 164.903625,215.269516 157.972900,214.988632 
	C153.339264,214.800858 151.065369,212.400314 151.040848,207.828064 
	C151.009583,201.997223 151.092606,196.165176 151.005722,190.335434 
	C150.904846,183.565308 147.419662,180.090347 140.634476,179.977264 
	C135.637970,179.894012 130.638458,180.007523 125.641075,179.956528 
	C121.155701,179.910767 118.930031,181.999939 118.968933,186.541153 
	C119.018875,192.371719 118.808220,198.209381 119.021584,204.032578 
	C119.374809,213.672806 117.522522,214.836685 106.470444,216.514130 
	C104.567528,209.469925 102.305687,202.885681 101.999153,196.211609 
	C101.315430,181.325226 110.144783,169.020737 125.055161,164.337189 
	C137.893250,160.304565 152.352036,162.996857 161.928223,175.154373 
	C163.925186,177.689621 165.704880,180.396011 167.174973,182.450836 
	C171.601822,177.719635 175.284454,172.371475 180.236938,168.769104 
	C192.589478,159.784027 209.867859,160.979126 222.022552,170.766968 
	C232.864197,179.497452 236.863876,196.710037 231.197922,210.425491 
	C229.865311,213.651321 228.398132,216.821564 226.757599,220.251373 
	C223.663483,224.986877 220.804626,229.488373 217.963867,234.004150 
	C217.981979,234.018433 218.003769,233.977478 217.741547,234.101639 
	C217.187683,234.484665 216.896042,234.743515 216.324036,235.138382 
	C212.298752,239.789612 208.553802,244.304840 204.808868,248.820038 
z"/>
<path fill="#66EAB7" opacity="1.000000" stroke="none" 
	d="
M226.992859,220.017365 
	C228.398132,216.821564 229.865311,213.651321 231.197922,210.425491 
	C236.863876,196.710037 232.864197,179.497452 222.022552,170.766968 
	C209.867859,160.979126 192.589478,159.784027 180.236938,168.769104 
	C175.284454,172.371475 171.601822,177.719635 167.174973,182.450836 
	C165.704880,180.396011 163.925186,177.689621 161.928223,175.154373 
	C152.352036,162.996857 137.893250,160.304565 125.055161,164.337189 
	C110.144783,169.020737 101.315430,181.325226 101.999153,196.211609 
	C102.305687,202.885681 104.567528,209.469925 106.084793,216.437805 
	C101.922478,217.898056 99.225204,216.038010 97.059441,212.366821 
	C89.979561,200.365753 83.271858,188.327179 83.988808,173.662064 
	C84.941269,154.179764 97.602036,139.281174 115.562126,134.071350 
	C122.834930,131.961655 130.153824,131.721008 137.632233,133.838226 
	C147.784714,136.712524 155.875656,142.231964 161.973938,150.786530 
	C163.703079,153.212173 165.515305,155.578583 166.582642,157.018570 
	C172.598434,150.979385 177.793106,143.890167 184.645248,139.246979 
	C203.131012,126.720589 228.580704,131.936584 242.269150,149.450256 
	C255.506592,166.386887 252.883881,188.761154 240.538788,207.817154 
	C237.445923,212.591324 233.602066,216.878998 229.687073,221.600067 
	C228.511490,221.212372 227.752182,220.614868 226.992859,220.017365 
z"/>
<path fill="#64DDC3" opacity="1.000000" stroke="none" 
	d="
M226.757599,220.251373 
	C227.752182,220.614868 228.511490,221.212372 229.543030,221.912598 
	C226.770004,225.916794 223.724731,229.818268 220.017700,233.871857 
	C218.885895,234.012619 218.415817,234.001236 217.945755,233.989868 
	C220.804626,229.488373 223.663483,224.986877 226.757599,220.251373 
z"/>
<path fill="#52BDBF" opacity="1.000000" stroke="none" 
	d="
M217.963867,234.004150 
	C218.415817,234.001236 218.885895,234.012619 219.707825,234.039337 
	C215.212204,238.976517 210.364731,243.898346 205.163071,248.820129 
	C208.553802,244.304840 212.298752,239.789612 216.591675,235.010101 
	C217.427689,234.489700 217.715714,234.233582 218.003754,233.977478 
	C218.003769,233.977478 217.981979,234.018433 217.963867,234.004150 
z"/>
<path fill="#64DDC3" opacity="1.000000" stroke="none" 
	d="
M217.741547,234.101624 
	C217.715714,234.233582 217.427689,234.489700 216.872025,234.874100 
	C216.896042,234.743515 217.187683,234.484665 217.741547,234.101624 
z"/>
</svg>