<svg xmlns="http://www.w3.org/2000/svg" xmlns:xlink="http://www.w3.org/1999/xlink" width="500" zoomAndPan="magnify" viewBox="0 0 375 374.999991" height="500" preserveAspectRatio="xMidYMid meet" version="1.0"><defs><filter x="0%" y="0%" width="100%" height="100%" id="31a1725a0f"><feColorMatrix values="0 0 0 0 1 0 0 0 0 1 0 0 0 0 1 0 0 0 1 0" color-interpolation-filters="sRGB"/></filter><g/><clipPath id="285843596c"><path d="M 65 137.347656 L 111 137.347656 L 111 209 L 65 209 Z M 65 137.347656 " clip-rule="nonzero"/></clipPath><clipPath id="1ddaef6a9c"><path d="M 19.628906 176.347656 L 19.628906 187.894531 C 19.628906 209.433594 37.089844 226.894531 58.628906 226.894531 L 72 226.894531 C 93.542969 226.894531 111 209.433594 111 187.894531 L 111 176.347656 C 111 154.808594 93.542969 137.347656 72 137.347656 L 58.628906 137.347656 C 37.089844 137.347656 19.628906 154.808594 19.628906 176.347656 Z M 19.628906 176.347656 " clip-rule="nonzero"/></clipPath><clipPath id="f871a00407"><path d="M 19.628906 158 L 66 158 L 66 226.597656 L 19.628906 226.597656 Z M 19.628906 158 " clip-rule="nonzero"/></clipPath><clipPath id="b1e637832c"><path d="M 19.628906 176.347656 L 19.628906 187.894531 C 19.628906 209.433594 37.089844 226.894531 58.628906 226.894531 L 72 226.894531 C 93.542969 226.894531 111 209.433594 111 187.894531 L 111 176.347656 C 111 154.808594 93.542969 137.347656 72 137.347656 L 58.628906 137.347656 C 37.089844 137.347656 19.628906 154.808594 19.628906 176.347656 Z M 19.628906 176.347656 " clip-rule="nonzero"/></clipPath><mask id="55103e2179"><g filter="url(#31a1725a0f)"><rect x="-37.5" width="450" fill="#000000" y="-37.499999" height="449.999989" fill-opacity="0.67"/></g></mask><clipPath id="8efa789f07"><path d="M 0.386719 0.925781 L 69.925781 0.925781 L 69.925781 92.894531 L 0.386719 92.894531 Z M 0.386719 0.925781 " clip-rule="nonzero"/></clipPath><clipPath id="18eac2c822"><rect x="0" width="71" y="0" height="94"/></clipPath></defs><g clip-path="url(#285843596c)"><g clip-path="url(#1ddaef6a9c)"><path fill="#efefef" d="M 65.304688 137.382812 L 66.070312 137.375 L 66.453125 137.375 L 66.835938 137.378906 L 67.601562 137.394531 L 68.367188 137.429688 L 68.75 137.445312 L 69.132812 137.472656 L 69.894531 137.527344 L 70.660156 137.601562 L 71.039062 137.636719 L 71.421875 137.683594 C 71.675781 137.714844 71.929688 137.746094 72.183594 137.777344 L 72.941406 137.890625 C 73.066406 137.910156 73.195312 137.925781 73.320312 137.949219 L 74.078125 138.082031 C 74.203125 138.105469 74.328125 138.121094 74.453125 138.148438 C 74.957031 138.25 75.460938 138.34375 75.957031 138.464844 L 76.332031 138.546875 L 76.519531 138.589844 L 76.707031 138.636719 L 77.453125 138.824219 C 81.449219 139.878906 85.230469 141.453125 88.789062 143.554688 C 89.230469 143.820312 89.671875 144.082031 90.105469 144.363281 C 90.542969 144.636719 90.964844 144.925781 91.394531 145.214844 C 91.605469 145.359375 91.816406 145.511719 92.027344 145.660156 L 92.339844 145.882812 L 92.652344 146.113281 C 92.855469 146.265625 93.066406 146.417969 93.269531 146.574219 L 93.878906 147.050781 C 94.683594 147.695312 95.476562 148.359375 96.234375 149.058594 L 96.519531 149.316406 C 96.617188 149.40625 96.707031 149.496094 96.800781 149.582031 L 97.363281 150.117188 C 97.726562 150.484375 98.097656 150.84375 98.449219 151.222656 C 101.328125 154.230469 103.742188 157.574219 105.695312 161.253906 C 107.636719 164.914062 109.117188 168.832031 110.023438 172.898438 L 110.257812 174.046875 L 110.328125 174.429688 L 110.460938 175.199219 L 110.578125 175.972656 C 110.597656 176.101562 110.617188 176.226562 110.632812 176.359375 L 110.679688 176.746094 C 110.710938 177.003906 110.746094 177.261719 110.773438 177.523438 L 110.84375 178.296875 C 110.855469 178.429688 110.871094 178.558594 110.878906 178.6875 L 110.902344 179.078125 C 110.917969 179.335938 110.9375 179.597656 110.949219 179.855469 L 110.980469 180.636719 C 110.980469 180.765625 110.988281 180.898438 110.988281 181.027344 L 110.992188 181.417969 C 110.996094 181.679688 111 181.9375 110.996094 182.199219 C 110.988281 183.238281 110.9375 184.28125 110.851562 185.316406 C 110.765625 186.355469 110.640625 187.386719 110.480469 188.414062 C 110.316406 189.441406 110.117188 190.460938 109.878906 191.472656 C 109.644531 192.484375 109.375 193.488281 109.0625 194.476562 L 108.820312 195.214844 C 108.78125 195.339844 108.738281 195.460938 108.695312 195.582031 L 108.566406 195.953125 L 108.503906 196.132812 L 108.4375 196.316406 L 108.300781 196.679688 C 108.210938 196.921875 108.117188 197.164062 108.019531 197.40625 C 107.257812 199.328125 106.355469 201.179688 105.308594 202.964844 C 104.789062 203.851562 104.234375 204.71875 103.648438 205.558594 C 103.0625 206.402344 102.449219 207.222656 101.792969 208.007812 L 101.628906 207.890625 C 102.152344 207.015625 102.65625 206.136719 103.132812 205.242188 C 103.609375 204.351562 104.058594 203.445312 104.480469 202.53125 C 105.324219 200.703125 106.050781 198.832031 106.660156 196.914062 C 106.738281 196.675781 106.8125 196.4375 106.882812 196.199219 L 106.988281 195.839844 L 107.042969 195.660156 L 107.09375 195.476562 C 107.15625 195.238281 107.230469 194.996094 107.292969 194.753906 L 107.480469 194.03125 C 107.71875 193.0625 107.933594 192.085938 108.113281 191.105469 C 108.289062 190.125 108.441406 189.136719 108.558594 188.148438 L 108.640625 187.40625 C 108.664062 187.160156 108.683594 186.914062 108.707031 186.664062 L 108.726562 186.480469 L 108.738281 186.292969 L 108.765625 185.921875 C 108.773438 185.796875 108.785156 185.671875 108.792969 185.546875 L 108.832031 184.804688 C 108.839844 184.679688 108.839844 184.554688 108.847656 184.429688 L 108.859375 184.058594 L 108.867188 183.871094 L 108.871094 183.6875 L 108.882812 182.941406 L 108.882812 182.195312 C 108.871094 181.203125 108.847656 180.207031 108.777344 179.21875 L 108.753906 178.84375 C 108.746094 178.722656 108.734375 178.597656 108.722656 178.472656 L 108.660156 177.730469 C 108.652344 177.609375 108.632812 177.488281 108.621094 177.363281 L 108.578125 176.992188 L 108.539062 176.621094 C 108.523438 176.496094 108.507812 176.375 108.492188 176.253906 L 108.394531 175.511719 L 108.289062 174.773438 L 108.234375 174.40625 L 108.167969 174.039062 L 108.039062 173.300781 C 107.667969 171.34375 107.167969 169.417969 106.539062 167.527344 C 106.386719 167.050781 106.210938 166.585938 106.042969 166.113281 C 105.953125 165.882812 105.863281 165.648438 105.773438 165.417969 L 105.636719 165.070312 L 105.492188 164.722656 C 105.113281 163.800781 104.6875 162.898438 104.242188 162.003906 C 100.652344 154.863281 95.066406 148.71875 88.257812 144.425781 C 86.550781 143.347656 84.78125 142.394531 82.941406 141.558594 L 82.597656 141.402344 C 82.484375 141.347656 82.367188 141.300781 82.253906 141.25 L 81.558594 140.953125 L 80.855469 140.675781 L 80.503906 140.535156 L 80.148438 140.402344 C 79.910156 140.316406 79.675781 140.226562 79.4375 140.144531 L 78.722656 139.898438 C 78.484375 139.8125 78.242188 139.738281 78 139.664062 L 77.640625 139.550781 L 77.460938 139.492188 C 77.398438 139.472656 77.335938 139.457031 77.277344 139.4375 L 76.550781 139.226562 L 76.183594 139.132812 L 75.816406 139.035156 C 75.328125 138.902344 74.835938 138.792969 74.34375 138.675781 C 74.222656 138.644531 74.101562 138.621094 73.976562 138.59375 L 73.601562 138.519531 L 73.230469 138.441406 C 73.109375 138.414062 72.984375 138.394531 72.859375 138.371094 L 72.113281 138.230469 C 71.863281 138.191406 71.613281 138.152344 71.363281 138.113281 L 70.988281 138.054688 L 70.609375 138.003906 L 69.859375 137.902344 L 69.101562 137.820312 L 68.722656 137.78125 L 67.585938 137.6875 L 66.828125 137.648438 L 66.445312 137.625 L 66.066406 137.613281 L 65.304688 137.589844 Z M 65.304688 137.382812 " fill-opacity="1" fill-rule="nonzero"/></g></g><g clip-path="url(#f871a00407)"><g clip-path="url(#b1e637832c)"><path fill="#efefef" d="M 65.304688 226.855469 L 64.5625 226.863281 L 64.1875 226.863281 C 64.066406 226.863281 63.941406 226.859375 63.816406 226.859375 L 63.070312 226.84375 C 62.820312 226.835938 62.574219 226.824219 62.324219 226.8125 C 61.828125 226.796875 61.332031 226.753906 60.835938 226.722656 C 60.710938 226.714844 60.585938 226.699219 60.460938 226.6875 L 60.089844 226.652344 C 59.84375 226.628906 59.59375 226.609375 59.347656 226.574219 L 58.605469 226.484375 C 58.484375 226.472656 58.359375 226.453125 58.238281 226.433594 L 57.871094 226.378906 C 57.375 226.3125 56.886719 226.21875 56.394531 226.132812 C 55.414062 225.949219 54.4375 225.746094 53.472656 225.492188 C 52.984375 225.375 52.507812 225.234375 52.023438 225.101562 C 51.90625 225.070312 51.785156 225.03125 51.667969 224.996094 L 51.308594 224.886719 L 50.949219 224.773438 C 50.832031 224.738281 50.710938 224.695312 50.59375 224.660156 L 49.882812 224.421875 C 49.648438 224.339844 49.414062 224.25 49.175781 224.167969 L 48.824219 224.039062 C 48.707031 223.992188 48.59375 223.949219 48.476562 223.902344 L 47.777344 223.628906 C 45.917969 222.875 44.117188 222 42.375 221.007812 C 35.398438 217.042969 29.507812 211.140625 25.527344 204.113281 L 25.339844 203.785156 L 25.160156 203.453125 L 24.796875 202.789062 L 24.453125 202.113281 C 24.394531 202 24.335938 201.890625 24.28125 201.777344 L 24.117188 201.433594 C 23.667969 200.53125 23.261719 199.605469 22.875 198.667969 L 22.523438 197.789062 L 22.457031 197.609375 L 22.191406 196.898438 L 22.117188 196.722656 L 22.058594 196.542969 L 21.808594 195.824219 C 21.492188 194.863281 21.195312 193.894531 20.945312 192.910156 C 20.433594 190.945312 20.074219 188.949219 19.859375 186.929688 C 19.757812 185.917969 19.679688 184.90625 19.652344 183.894531 L 19.640625 183.511719 L 19.636719 183.324219 C 19.636719 183.257812 19.636719 183.195312 19.636719 183.132812 L 19.632812 182.371094 C 19.628906 182.117188 19.640625 181.863281 19.648438 181.613281 L 19.671875 180.851562 C 19.84375 176.785156 20.582031 172.820312 21.894531 168.964844 C 22.542969 167.058594 23.332031 165.210938 24.253906 163.421875 L 24.609375 162.757812 L 24.789062 162.425781 C 24.847656 162.316406 24.90625 162.207031 24.972656 162.101562 L 25.351562 161.453125 C 25.480469 161.238281 25.605469 161.019531 25.734375 160.808594 C 26.003906 160.386719 26.277344 159.96875 26.550781 159.550781 C 26.835938 159.140625 27.121094 158.734375 27.414062 158.332031 L 27.585938 158.4375 C 27.363281 158.882812 27.136719 159.324219 26.910156 159.761719 L 26.269531 161.097656 L 25.667969 162.445312 C 25.617188 162.558594 25.570312 162.671875 25.523438 162.785156 L 25.101562 163.804688 C 24.382812 165.628906 23.773438 167.488281 23.273438 169.382812 C 22.28125 173.160156 21.761719 177 21.714844 180.90625 L 21.710938 181.632812 C 21.710938 181.875 21.707031 182.117188 21.714844 182.359375 L 21.730469 183.085938 C 21.730469 183.144531 21.730469 183.207031 21.734375 183.265625 L 21.746094 183.449219 L 21.761719 183.8125 L 21.777344 184.171875 L 21.785156 184.355469 L 21.796875 184.535156 L 21.847656 185.261719 C 21.855469 185.382812 21.863281 185.5 21.875 185.621094 L 21.910156 185.984375 L 21.941406 186.34375 C 21.949219 186.464844 21.960938 186.585938 21.976562 186.707031 C 22.179688 188.628906 22.480469 190.542969 22.914062 192.433594 C 23.117188 193.378906 23.371094 194.316406 23.640625 195.246094 L 23.851562 195.941406 L 23.902344 196.117188 L 23.960938 196.289062 L 24.074219 196.636719 L 24.191406 196.980469 L 24.246094 197.152344 L 24.308594 197.324219 L 24.554688 198.007812 C 24.898438 198.917969 25.253906 199.820312 25.660156 200.707031 L 25.808594 201.039062 C 25.859375 201.152344 25.914062 201.257812 25.964844 201.371094 L 26.28125 202.027344 L 26.613281 202.675781 L 26.777344 203 L 27.304688 203.960938 L 27.667969 204.59375 C 27.730469 204.699219 27.789062 204.808594 27.851562 204.910156 L 28.039062 205.222656 L 28.230469 205.535156 C 28.292969 205.636719 28.355469 205.742188 28.421875 205.84375 C 28.6875 206.253906 28.945312 206.667969 29.222656 207.066406 L 29.425781 207.371094 L 29.53125 207.519531 L 29.636719 207.671875 L 30.058594 208.265625 C 30.128906 208.367188 30.203125 208.460938 30.277344 208.558594 L 30.496094 208.851562 C 30.640625 209.046875 30.785156 209.242188 30.9375 209.433594 L 31.390625 210.007812 C 31.542969 210.199219 31.699219 210.386719 31.851562 210.574219 L 32.085938 210.855469 L 32.324219 211.132812 L 32.804688 211.6875 L 33.296875 212.226562 C 33.375 212.316406 33.457031 212.410156 33.542969 212.496094 L 33.796875 212.761719 C 34.460938 213.476562 35.164062 214.15625 35.878906 214.824219 L 36.417969 215.316406 C 36.507812 215.398438 36.601562 215.480469 36.695312 215.558594 L 36.96875 215.800781 L 37.246094 216.042969 C 37.339844 216.121094 37.433594 216.199219 37.527344 216.277344 L 38.09375 216.746094 C 42.722656 220.507812 47.902344 223.21875 53.632812 224.878906 C 54.574219 225.160156 55.53125 225.394531 56.492188 225.609375 C 56.976562 225.710938 57.457031 225.816406 57.941406 225.902344 L 58.308594 225.96875 C 58.429688 225.992188 58.550781 226.015625 58.671875 226.03125 L 59.402344 226.148438 C 59.648438 226.1875 59.890625 226.21875 60.132812 226.25 L 60.503906 226.300781 C 60.625 226.316406 60.746094 226.335938 60.871094 226.347656 C 61.359375 226.398438 61.851562 226.460938 62.34375 226.492188 C 62.589844 226.511719 62.835938 226.535156 63.082031 226.554688 L 63.824219 226.59375 C 63.945312 226.601562 64.066406 226.609375 64.191406 226.613281 L 64.5625 226.625 L 65.304688 226.652344 Z M 65.304688 226.855469 " fill-opacity="1" fill-rule="nonzero"/></g></g><g mask="url(#55103e2179)"><g transform="matrix(1, 0, 0, 1, 23, 134)"><g clip-path="url(#18eac2c822)"><g clip-path="url(#8efa789f07)"><path fill="#efefef" d="M 45.519531 37.59375 L 45.53125 37.578125 C 45.46875 37.554688 45.410156 37.53125 45.410156 37.53125 C 45.40625 37.527344 45.464844 37.5625 45.519531 37.59375 Z M 51.609375 32.222656 C 51.621094 32.214844 51.675781 32.195312 51.734375 32.171875 C 51.730469 32.167969 51.726562 32.164062 51.722656 32.15625 C 51.722656 32.15625 51.722656 32.160156 51.722656 32.160156 C 51.671875 32.1875 51.621094 32.214844 51.609375 32.222656 Z M 42.6875 32.683594 C 42.734375 32.636719 42.785156 32.585938 42.835938 32.535156 C 42.78125 32.578125 42.726562 32.625 42.671875 32.671875 Z M 27.890625 70.335938 C 27.914062 70.273438 27.9375 70.210938 27.957031 70.144531 C 27.957031 70.132812 27.957031 70.121094 27.957031 70.105469 C 27.953125 70.113281 27.949219 70.125 27.941406 70.132812 C 27.925781 70.199219 27.910156 70.269531 27.890625 70.335938 Z M 31.136719 75.015625 C 31.167969 75.007812 31.21875 75.011719 31.230469 74.992188 C 31.25 74.964844 31.238281 74.917969 31.242188 74.882812 C 31.191406 74.890625 31.144531 74.902344 31.097656 74.914062 C 31.109375 74.945312 31.125 74.980469 31.136719 75.015625 Z M 43.101562 31.703125 C 42.96875 31.6875 42.835938 31.675781 42.703125 31.660156 C 42.8125 31.730469 42.925781 31.796875 43.03125 31.863281 C 43.054688 31.8125 43.078125 31.757812 43.101562 31.703125 Z M 61.667969 35.847656 C 61.640625 35.84375 61.609375 35.875 61.582031 35.890625 C 61.605469 35.914062 61.628906 35.9375 61.652344 35.957031 C 61.679688 35.941406 61.710938 35.925781 61.738281 35.910156 C 61.714844 35.886719 61.695312 35.847656 61.667969 35.847656 Z M 33.96875 37.574219 C 34.015625 37.5 34.046875 37.453125 34.074219 37.410156 C 34.039062 37.410156 33.980469 37.402344 33.972656 37.414062 C 33.960938 37.449219 33.96875 37.492188 33.96875 37.574219 Z M 27.054688 57.5 C 27.023438 57.527344 26.996094 57.550781 26.96875 57.578125 C 27.007812 57.621094 27.046875 57.660156 27.085938 57.703125 C 27.097656 57.667969 27.109375 57.628906 27.121094 57.59375 C 27.097656 57.5625 27.074219 57.53125 27.054688 57.5 Z M 32.769531 41.585938 C 32.734375 41.523438 32.695312 41.460938 32.660156 41.398438 C 32.632812 41.417969 32.578125 41.453125 32.582031 41.460938 C 32.613281 41.523438 32.652344 41.585938 32.6875 41.648438 C 32.714844 41.628906 32.742188 41.605469 32.769531 41.585938 Z M 31.726562 41.347656 C 31.699219 41.367188 31.652344 41.386719 31.652344 41.402344 C 31.65625 41.476562 31.675781 41.546875 31.6875 41.621094 C 31.714844 41.601562 31.742188 41.582031 31.765625 41.566406 C 31.753906 41.492188 31.738281 41.417969 31.726562 41.347656 Z M 27.390625 66.203125 C 27.335938 66.195312 27.28125 66.1875 27.226562 66.183594 C 27.230469 66.265625 27.230469 66.34375 27.246094 66.421875 C 27.246094 66.433594 27.308594 66.429688 27.34375 66.433594 C 27.359375 66.355469 27.375 66.277344 27.390625 66.203125 Z M 32.457031 36.484375 C 32.496094 36.421875 32.535156 36.359375 32.574219 36.292969 C 32.523438 36.25 32.476562 36.203125 32.429688 36.160156 C 32.410156 36.238281 32.386719 36.316406 32.382812 36.394531 C 32.378906 36.425781 32.429688 36.457031 32.457031 36.484375 Z M 62.984375 35.699219 C 62.925781 35.738281 62.875 35.792969 62.820312 35.84375 C 62.882812 35.882812 62.945312 35.917969 63.007812 35.957031 C 63.03125 35.890625 63.066406 35.828125 63.078125 35.761719 C 63.082031 35.746094 63 35.691406 62.984375 35.699219 Z M 27.40625 56 C 27.335938 55.820312 27.265625 55.636719 27.191406 55.453125 C 27.203125 55.648438 27.21875 55.847656 27.230469 56.042969 C 27.289062 56.027344 27.347656 56.015625 27.40625 56 Z M 27.191406 55.453125 C 27.191406 55.4375 27.191406 55.417969 27.1875 55.402344 C 27.183594 55.398438 27.183594 55.394531 27.179688 55.390625 C 27.179688 55.398438 27.175781 55.40625 27.175781 55.414062 C 27.179688 55.425781 27.1875 55.441406 27.191406 55.453125 Z M 30.199219 62.4375 C 30.175781 62.4375 30.132812 62.511719 30.140625 62.523438 C 30.175781 62.574219 30.222656 62.609375 30.269531 62.652344 C 30.304688 62.589844 30.339844 62.527344 30.378906 62.464844 C 30.316406 62.453125 30.257812 62.433594 30.199219 62.4375 Z M 29.285156 42.296875 C 29.265625 42.328125 29.222656 42.367188 29.226562 42.394531 C 29.242188 42.457031 29.28125 42.511719 29.308594 42.570312 C 29.351562 42.515625 29.394531 42.457031 29.433594 42.402344 C 29.386719 42.367188 29.335938 42.332031 29.285156 42.296875 Z M 28.710938 67.578125 C 28.632812 67.402344 28.550781 67.226562 28.472656 67.054688 C 28.496094 67.246094 28.519531 67.433594 28.539062 67.625 C 28.597656 67.609375 28.65625 67.59375 28.710938 67.578125 Z M 28.472656 67.054688 C 28.472656 67.046875 28.472656 67.042969 28.46875 67.039062 C 28.46875 67.039062 28.46875 67.042969 28.46875 67.042969 C 28.46875 67.046875 28.46875 67.050781 28.472656 67.054688 Z M 30.523438 60.347656 C 30.527344 60.339844 30.535156 60.332031 30.539062 60.324219 C 30.539062 60.308594 30.539062 60.292969 30.535156 60.277344 C 30.53125 60.289062 30.527344 60.300781 30.523438 60.3125 C 30.523438 60.324219 30.523438 60.332031 30.523438 60.347656 Z M 30.523438 61.234375 C 30.523438 60.9375 30.523438 60.640625 30.523438 60.347656 C 30.308594 60.613281 30.226562 60.898438 30.523438 61.234375 Z M 26.058594 83.761719 C 26.058594 83.578125 26.058594 83.394531 26.058594 83.210938 C 26.023438 83.210938 25.988281 83.210938 25.953125 83.210938 C 25.953125 83.398438 25.953125 83.582031 25.953125 83.765625 C 25.988281 83.765625 26.023438 83.765625 26.058594 83.761719 Z M 31.0625 57.425781 C 31.058594 57.445312 31.050781 57.464844 31.046875 57.480469 C 31.046875 57.496094 31.046875 57.507812 31.046875 57.519531 C 31.054688 57.511719 31.058594 57.503906 31.0625 57.492188 C 31.0625 57.472656 31.0625 57.449219 31.0625 57.425781 Z M 31.0625 56.738281 C 31.0625 56.96875 31.0625 57.195312 31.0625 57.425781 C 31.136719 57.210938 31.203125 56.996094 31.277344 56.78125 C 31.203125 56.765625 31.136719 56.753906 31.0625 56.738281 Z M 30.386719 42.015625 C 30.359375 42.15625 30.328125 42.300781 30.296875 42.441406 C 30.359375 42.457031 30.417969 42.472656 30.476562 42.488281 C 30.515625 42.355469 30.558594 42.222656 30.578125 42.089844 C 30.578125 42.074219 30.453125 42.042969 30.386719 42.015625 Z M 26.550781 79.90625 C 26.515625 79.847656 26.484375 79.78125 26.441406 79.726562 C 26.433594 79.71875 26.339844 79.75 26.339844 79.769531 C 26.332031 79.839844 26.347656 79.914062 26.351562 79.984375 C 26.417969 79.960938 26.484375 79.933594 26.550781 79.90625 Z M 27.957031 69.296875 C 27.957031 69.566406 27.957031 69.835938 27.957031 70.105469 C 28.144531 69.855469 28.199219 69.589844 27.957031 69.296875 Z M 31.632812 69.574219 C 31.632812 69.769531 31.632812 69.964844 31.632812 70.15625 C 31.683594 70.167969 31.734375 70.179688 31.785156 70.191406 C 31.777344 69.984375 31.765625 69.777344 31.757812 69.570312 C 31.71875 69.570312 31.675781 69.574219 31.632812 69.574219 Z M 28.269531 64.15625 C 28.3125 64.15625 28.355469 64.160156 28.398438 64.160156 C 28.410156 63.972656 28.421875 63.785156 28.433594 63.601562 C 28.378906 63.601562 28.324219 63.605469 28.269531 63.609375 C 28.269531 63.792969 28.269531 63.972656 28.269531 64.15625 Z M 34.320312 34.3125 C 34.320312 34.097656 34.320312 33.878906 34.320312 33.660156 C 34.292969 33.660156 34.265625 33.660156 34.242188 33.65625 C 34.242188 33.875 34.242188 34.09375 34.242188 34.308594 C 34.265625 34.3125 34.292969 34.3125 34.320312 34.3125 Z M 26.945312 72.355469 C 26.695312 72.90625 26.8125 73.222656 27.167969 73.488281 C 27.191406 73.140625 27.265625 72.785156 26.945312 72.355469 Z M 27.167969 73.488281 C 27.167969 73.496094 27.164062 73.503906 27.164062 73.511719 C 27.171875 73.507812 27.175781 73.503906 27.183594 73.5 C 27.175781 73.496094 27.171875 73.492188 27.167969 73.488281 Z M 26.304688 68.671875 C 26.253906 68.929688 26.207031 69.1875 26.15625 69.445312 C 26.226562 69.4375 26.296875 69.433594 26.367188 69.429688 C 26.410156 69.1875 26.449219 68.945312 26.496094 68.703125 C 26.429688 68.691406 26.367188 68.683594 26.304688 68.671875 Z M 37.949219 18.78125 C 37.949219 18.484375 37.949219 18.183594 37.949219 17.882812 C 37.914062 17.882812 37.875 17.882812 37.839844 17.882812 C 37.839844 18.183594 37.839844 18.480469 37.839844 18.78125 C 37.875 18.78125 37.914062 18.78125 37.949219 18.78125 Z M 35.613281 34.496094 C 35.613281 34.808594 35.613281 35.039062 35.613281 35.269531 C 35.882812 34.875 35.882812 34.875 35.613281 34.496094 Z M 28.457031 49.882812 C 28.820312 49.597656 28.953125 49.292969 28.585938 48.742188 C 28.527344 49.28125 28.492188 49.582031 28.457031 49.882812 Z M 43.273438 31.148438 C 43.230469 31.09375 43.191406 31.03125 43.148438 30.972656 C 42.921875 31.109375 42.695312 31.246094 42.464844 31.382812 C 42.535156 31.46875 42.605469 31.554688 42.675781 31.644531 L 42.664062 31.65625 C 42.679688 31.660156 42.691406 31.660156 42.703125 31.660156 C 42.695312 31.65625 42.6875 31.652344 42.679688 31.644531 C 42.878906 31.480469 43.074219 31.316406 43.273438 31.148438 Z M 28.289062 59.902344 C 28.28125 59.925781 28.339844 59.964844 28.417969 60.050781 C 28.519531 59.957031 28.570312 59.933594 28.574219 59.898438 C 28.601562 59.738281 28.628906 59.578125 28.632812 59.414062 C 28.632812 59.390625 28.5 59.363281 28.429688 59.339844 C 28.382812 59.527344 28.328125 59.714844 28.289062 59.902344 Z M 26.972656 81.15625 C 27.027344 80.820312 27.082031 80.484375 27.140625 80.148438 C 27.078125 80.136719 27.015625 80.121094 26.953125 80.109375 C 26.863281 80.433594 26.769531 80.757812 26.679688 81.082031 C 26.777344 81.105469 26.875 81.128906 26.972656 81.15625 Z M 29.0625 46.40625 C 28.984375 46.402344 28.902344 46.398438 28.820312 46.390625 C 28.800781 46.816406 28.78125 47.242188 28.761719 47.667969 C 28.839844 47.671875 28.914062 47.675781 28.992188 47.679688 C 29.015625 47.253906 29.039062 46.832031 29.0625 46.40625 Z M 33.183594 34.695312 C 33.113281 35.238281 33.046875 35.78125 32.976562 36.324219 C 33.480469 35.859375 33.414062 35.285156 33.183594 34.695312 Z M 31.046875 57.519531 C 30.460938 58.363281 30.464844 59.3125 30.535156 60.277344 C 30.886719 59.390625 31.121094 58.484375 31.046875 57.519531 Z M 34.457031 32.546875 C 34.800781 32.351562 35.34375 32.390625 35.535156 31.792969 C 34.925781 31.804688 34.5625 31.984375 34.457031 32.546875 Z M 29.558594 41.320312 C 30.019531 40.808594 30.015625 40.320312 29.558594 39.621094 C 29.558594 40.347656 29.558594 40.832031 29.558594 41.320312 Z M 28.25 86.664062 C 28.226562 86.855469 28.269531 87.058594 28.285156 87.351562 C 28.957031 86.289062 28.964844 86.199219 28.484375 85.363281 C 28.394531 85.847656 28.304688 86.253906 28.25 86.664062 Z M 30.367188 68.835938 C 30.464844 68.84375 30.566406 68.847656 30.667969 68.855469 C 30.75 68.191406 30.828125 67.53125 30.910156 66.867188 C 30.476562 67.484375 30.238281 68.125 30.367188 68.835938 Z M 31.042969 44.820312 C 31.015625 44.59375 30.988281 44.367188 30.949219 44.042969 C 30.382812 44.503906 30.222656 45.035156 30.109375 45.582031 C 30.039062 45.925781 30.292969 46.011719 30.53125 46.105469 C 30.492188 45.59375 30.585938 45.136719 31.042969 44.820312 Z M 29.808594 50.238281 C 30.066406 49.390625 30.066406 49.390625 29.917969 48.546875 C 29.367188 49.625 29.367188 49.714844 29.808594 50.238281 Z M 28.46875 67.039062 C 28.632812 66.464844 28.910156 65.871094 28.234375 65.371094 C 27.753906 66.382812 27.777344 66.539062 28.46875 67.039062 Z M 40.632812 37.574219 C 39.417969 37.695312 38.226562 37.8125 37.039062 37.933594 C 39.097656 38.300781 39.992188 38.191406 40.632812 37.574219 Z M 26.859375 62.484375 C 26.726562 62.597656 26.617188 62.640625 26.613281 62.695312 C 26.550781 63.855469 26.5 65.015625 26.449219 66.175781 C 26.996094 64.992188 27.039062 63.78125 26.859375 62.484375 Z M 25.476562 39.488281 C 24.175781 39.765625 23.132812 40.398438 22.082031 40.976562 C 23.964844 40.742188 24.789062 40.363281 25.476562 39.488281 Z M 27.382812 75.582031 C 27.578125 74.875 27.503906 74.089844 27.550781 73.28125 C 27.386719 73.378906 27.285156 73.441406 27.183594 73.5 C 27.207031 74.324219 27.132812 75.125 26.808594 75.902344 C 26.546875 76.539062 26.578125 77.167969 27.144531 77.949219 C 27.125 76.988281 27.1875 76.289062 27.382812 75.582031 Z M 30.546875 47.96875 C 30.636719 47.800781 30.730469 47.664062 30.785156 47.511719 C 31.207031 46.359375 31.644531 45.207031 32.023438 44.039062 C 32.15625 43.625 32.1875 43.15625 31.800781 42.710938 C 31.527344 43.480469 31.285156 44.152344 31.046875 44.820312 C 31.046875 44.820312 31.042969 44.820312 31.042969 44.820312 C 31.042969 44.824219 31.042969 44.824219 31.042969 44.828125 L 31.058594 44.808594 C 30.886719 45.242188 30.710938 45.675781 30.539062 46.109375 C 30.535156 46.109375 30.53125 46.109375 30.53125 46.105469 C 30.53125 46.113281 30.53125 46.117188 30.53125 46.125 L 30.542969 46.113281 C 29.941406 47.136719 29.941406 47.136719 30.546875 47.96875 Z M 45.539062 37.589844 C 45.636719 37.945312 45.898438 38 46.226562 37.988281 C 47.894531 37.921875 49.566406 37.878906 51.234375 37.800781 C 51.875 37.773438 52.519531 37.703125 53.152344 37.59375 C 53.449219 37.542969 53.722656 37.355469 54.007812 37.226562 C 53.980469 37.140625 53.957031 37.050781 53.929688 36.960938 C 51.128906 37.074219 48.324219 37.183594 45.539062 37.589844 Z M 45.519531 37.59375 C 45.527344 37.59375 45.53125 37.59375 45.539062 37.589844 C 45.535156 37.585938 45.535156 37.585938 45.53125 37.578125 Z M 32.246094 56.222656 C 32.25 56.050781 32.175781 55.878906 32.140625 55.703125 C 31.195312 59.054688 30.882812 62.4375 31.003906 66.082031 C 31.429688 65.027344 31.558594 64.152344 31.578125 63.246094 C 31.589844 62.648438 31.632812 62.042969 31.765625 61.464844 C 32 60.453125 32.152344 59.449219 32.132812 58.40625 C 32.121094 57.679688 32.21875 56.953125 32.246094 56.222656 Z M 66.328125 36.371094 C 63.472656 36.609375 60.617188 36.855469 57.761719 37.09375 C 57.148438 37.144531 56.53125 37.183594 55.917969 37.226562 C 55.917969 37.3125 55.914062 37.394531 55.914062 37.476562 C 56.996094 37.597656 58.074219 37.8125 59.15625 37.8125 C 60.953125 37.8125 62.746094 37.625 64.542969 37.617188 C 65.695312 37.613281 66.636719 37.019531 67.808594 36.785156 C 67.332031 36.195312 66.8125 36.332031 66.328125 36.371094 Z M 33.203125 48.871094 C 33.203125 48.882812 33.257812 48.878906 33.285156 48.882812 C 33.289062 48.84375 33.296875 48.804688 33.289062 48.769531 C 33.289062 48.761719 33.234375 48.761719 33.207031 48.757812 C 33.203125 48.796875 33.195312 48.835938 33.203125 48.871094 Z M 32.464844 44.164062 C 32.933594 44.871094 32.222656 45.515625 32.515625 46.3125 C 32.683594 45.785156 32.808594 45.386719 32.9375 44.988281 C 33.433594 45.535156 33.433594 45.535156 33.453125 47.582031 C 33.601562 47.1875 33.675781 46.921875 33.800781 46.691406 C 33.921875 46.476562 34.097656 46.296875 34.367188 45.953125 C 34.480469 46.332031 34.585938 46.542969 34.59375 46.757812 C 34.601562 46.964844 34.53125 47.183594 34.460938 47.382812 C 34.058594 48.476562 33.867188 49.609375 33.800781 50.773438 C 33.761719 51.445312 33.722656 51.441406 33.289062 52.066406 C 32.8125 51.417969 33.589844 50.660156 33.058594 49.925781 C 32.703125 50.660156 32.875 51.457031 32.351562 52.074219 C 31.804688 51.597656 31.683594 51.039062 31.722656 50.425781 C 31.832031 48.683594 31.953125 46.9375 32.058594 45.195312 C 32.082031 44.8125 32.164062 44.464844 32.464844 44.164062 Z M 30.792969 54.890625 L 30.800781 54.902344 C 30.558594 54.140625 30.570312 53.386719 30.847656 52.636719 C 31.003906 52.214844 31.148438 51.78125 30.800781 51.179688 C 30.429688 51.761719 30.378906 52.496094 29.636719 52.53125 C 29.566406 52.371094 29.496094 52.21875 29.378906 51.964844 C 29.105469 54.125 28.328125 56.109375 28.835938 58.265625 C 29.027344 58.148438 29.132812 58.082031 29.234375 58.015625 C 29.433594 59.332031 29.003906 60.679688 29.382812 62.210938 C 29.554688 61.882812 29.667969 61.75 29.691406 61.605469 C 29.820312 60.765625 29.878906 59.914062 30.054688 59.082031 C 30.277344 58.023438 30.109375 56.867188 30.90625 55.9375 C 31.140625 55.667969 31.140625 55.207031 30.792969 54.890625 Z M 34.269531 52.261719 C 34.039062 54.046875 33.824219 55.835938 33.597656 57.625 C 33.53125 58.132812 33.445312 58.636719 33.355469 59.144531 C 33.289062 59.523438 33.164062 59.894531 33.125 60.277344 C 32.941406 62.027344 32.753906 63.777344 32.613281 65.53125 C 32.492188 67.101562 31.875 68.636719 32.300781 70.242188 C 32.324219 70.320312 32.300781 70.414062 32.292969 70.5 C 32.117188 72.03125 31.96875 73.566406 31.761719 75.097656 C 31.632812 76.027344 31.375 76.945312 31.246094 77.875 C 31.085938 79.023438 31.015625 80.183594 30.871094 81.335938 C 30.660156 83.046875 30.738281 84.753906 30.8125 86.464844 C 30.90625 86.484375 31 86.503906 31.097656 86.523438 C 31.269531 85.917969 31.523438 85.324219 31.597656 84.707031 C 31.820312 82.835938 32.003906 80.957031 32.148438 79.074219 C 32.316406 76.898438 32.652344 74.738281 32.449219 72.539062 C 32.378906 71.785156 32.582031 71.003906 32.6875 70.238281 C 32.96875 68.15625 33.246094 66.074219 33.5625 63.996094 C 33.832031 62.222656 33.503906 60.390625 34.128906 58.652344 C 34.199219 58.457031 34.148438 58.226562 34.167969 58.011719 C 34.230469 57.371094 34.296875 56.734375 34.359375 56.09375 C 34.460938 55.070312 34.582031 54.046875 34.660156 53.019531 C 34.6875 52.667969 34.621094 52.3125 34.582031 51.757812 C 34.390625 52.058594 34.285156 52.15625 34.269531 52.261719 Z M 68.699219 31.550781 C 68.640625 31.523438 68.582031 31.492188 68.519531 31.476562 C 68.492188 31.472656 68.453125 31.503906 68.417969 31.519531 C 68.453125 31.570312 68.5 31.664062 68.523438 31.660156 C 68.585938 31.648438 68.640625 31.589844 68.699219 31.550781 Z M 61.59375 31.503906 C 61.566406 31.449219 61.542969 31.390625 61.515625 31.332031 C 61.367188 31.429688 61.214844 31.523438 61.066406 31.621094 C 61.242188 31.582031 61.417969 31.542969 61.59375 31.503906 Z M 59.328125 30.5625 C 59.125 30.582031 58.921875 30.597656 58.71875 30.617188 C 58.722656 30.671875 58.726562 30.726562 58.734375 30.78125 C 58.925781 30.78125 59.117188 30.78125 59.308594 30.78125 C 59.316406 30.710938 59.320312 30.636719 59.328125 30.5625 Z M 54.019531 30.605469 C 53.695312 30.328125 53.371094 30.375 53.046875 30.601562 C 53.371094 30.605469 53.695312 30.605469 54.019531 30.605469 Z M 52.070312 30.902344 C 51.570312 30.5 51.289062 30.378906 50.972656 30.613281 C 51.25 30.6875 51.535156 30.761719 52.070312 30.902344 Z M 50.59375 30.859375 C 50.699219 30.785156 50.808594 30.707031 50.914062 30.632812 C 50.78125 30.652344 50.652344 30.675781 50.519531 30.699219 C 50.542969 30.753906 50.570312 30.808594 50.59375 30.859375 Z M 46.953125 30.820312 C 46.933594 30.769531 46.914062 30.714844 46.898438 30.664062 C 46.792969 30.726562 46.691406 30.792969 46.589844 30.855469 C 46.710938 30.84375 46.832031 30.832031 46.953125 30.820312 Z M 31.65625 18.601562 C 31.519531 18.796875 31.476562 18.992188 31.46875 19.191406 C 31.371094 20.980469 31.480469 22.800781 30.574219 24.457031 C 30.476562 24.632812 30.453125 24.867188 30.445312 25.078125 C 30.386719 26.363281 30.339844 27.644531 30.296875 28.929688 C 30.289062 29.214844 30.296875 29.503906 30.296875 29.800781 C 30.726562 29.84375 31.054688 29.878906 31.472656 29.917969 C 31.691406 27.425781 31.953125 25.082031 31.738281 22.714844 C 31.679688 22.085938 31.785156 21.433594 31.859375 20.796875 C 31.949219 20.046875 31.878906 19.324219 31.65625 18.601562 Z M 29.683594 27.121094 C 29.523438 28.101562 29.359375 29.082031 29.199219 30.0625 C 29.871094 29.175781 29.699219 28.140625 29.683594 27.121094 Z M 27.796875 45.410156 C 27.789062 45.445312 27.792969 45.480469 27.792969 45.5625 C 27.832031 45.484375 27.851562 45.445312 27.871094 45.40625 C 27.847656 45.410156 27.796875 45.402344 27.796875 45.410156 Z M 27.863281 46.757812 L 27.796875 46.703125 L 27.796875 46.816406 Z M 27.367188 47.804688 C 26.707031 48.808594 27.117188 49.753906 27.191406 50.695312 C 27.390625 50.238281 27.574219 49.769531 27.53125 49.28125 C 27.492188 48.828125 27.792969 48.3125 27.367188 47.804688 Z M 26.566406 40.804688 C 26.566406 40.777344 26.535156 40.75 26.519531 40.71875 C 26.503906 40.75 26.472656 40.777344 26.46875 40.804688 C 26.46875 40.832031 26.5 40.863281 26.519531 40.890625 C 26.535156 40.863281 26.566406 40.832031 26.566406 40.804688 Z M 26.117188 50.542969 C 26.027344 50.535156 25.9375 50.523438 25.847656 50.515625 C 25.6875 52.035156 25.527344 53.5625 25.363281 55.082031 C 25.421875 55.101562 25.484375 55.121094 25.542969 55.140625 C 25.734375 53.605469 25.925781 52.074219 26.117188 50.542969 Z M 24.996094 67.84375 C 24.988281 67.910156 24.980469 67.972656 24.976562 68.035156 C 25 68.003906 25.042969 67.976562 25.046875 67.949219 C 25.046875 67.914062 25.015625 67.878906 24.996094 67.84375 Z M 24.75 63.289062 L 24.695312 63.230469 L 24.691406 63.339844 Z M 24.476562 65.699219 C 24.441406 65.730469 24.390625 65.753906 24.378906 65.789062 C 24.359375 65.851562 24.355469 65.917969 24.347656 65.984375 C 24.386719 65.925781 24.421875 65.871094 24.449219 65.8125 C 24.46875 65.777344 24.46875 65.734375 24.476562 65.699219 Z M 24.328125 66.132812 C 24.078125 67.636719 23.847656 69.144531 23.914062 70.761719 C 24.382812 69.191406 24.242188 67.652344 24.328125 66.132812 Z M 23.898438 77.699219 C 23.953125 77.707031 24.007812 77.710938 24.0625 77.71875 C 24.0625 77.535156 24.0625 77.347656 24.0625 77.164062 C 24.007812 77.34375 23.953125 77.519531 23.898438 77.699219 Z M 26.59375 34.394531 C 26.503906 33.910156 26.019531 33.957031 25.65625 33.875 C 25.539062 33.84375 25.398438 33.878906 25.277344 33.910156 C 24.027344 34.199219 22.78125 34.496094 21.53125 34.785156 C 20.308594 35.070312 19.160156 35.507812 18.3125 36.417969 C 16.945312 35.710938 15.941406 36.601562 14.875 37.164062 C 15.597656 36.964844 16.320312 36.765625 17.058594 36.5625 C 17.15625 36.863281 17.230469 37.09375 17.335938 37.425781 C 17.621094 37.390625 17.792969 37.382812 17.957031 37.347656 C 18.121094 37.308594 18.292969 37.269531 18.445312 37.191406 C 20.34375 36.222656 22.367188 35.695312 24.464844 35.402344 C 24.929688 35.339844 25.398438 35.25 25.84375 35.105469 C 26.183594 34.992188 26.695312 34.9375 26.59375 34.394531 Z M 16.449219 38.832031 C 16.433594 38.785156 16.421875 38.738281 16.40625 38.691406 C 16.300781 38.75 16.199219 38.808594 16.09375 38.867188 C 16.214844 38.855469 16.332031 38.84375 16.449219 38.832031 Z M 16.03125 38.882812 C 15.257812 38.847656 14.511719 38.914062 13.894531 39.449219 C 14.675781 39.492188 15.363281 39.222656 16.03125 38.882812 Z M 17.652344 34.015625 C 17.710938 34.054688 17.792969 34.140625 17.835938 34.125 C 17.933594 34.089844 18.066406 34.023438 18.097656 33.941406 C 18.128906 33.863281 18.042969 33.742188 17.980469 33.566406 C 17.78125 33.839844 17.714844 33.929688 17.652344 34.015625 Z M 18.957031 33.863281 C 18.960938 33.855469 18.960938 33.859375 18.957031 33.863281 Z M 21.722656 33.132812 C 21.757812 33.1875 21.804688 33.292969 21.820312 33.289062 C 21.925781 33.257812 22.027344 33.203125 22.164062 33.140625 C 22.0625 33.09375 22 33.039062 21.941406 33.042969 C 21.867188 33.050781 21.796875 33.101562 21.722656 33.132812 Z M 23.648438 32.8125 C 23.78125 33.320312 24.15625 33.421875 24.539062 33.414062 C 24.996094 33.40625 25.457031 33.347656 25.90625 33.257812 C 26.144531 33.210938 26.300781 33.214844 26.398438 33.441406 C 26.597656 32.640625 26.554688 32.5625 25.976562 32.457031 C 25.597656 32.386719 25.113281 32.683594 24.847656 32.167969 C 24.445312 32.382812 24.046875 32.597656 23.648438 32.8125 Z M 25.457031 31.683594 C 25.269531 31.832031 25.082031 31.984375 24.894531 32.132812 C 25.117188 32.046875 25.34375 31.957031 25.566406 31.867188 C 25.53125 31.808594 25.492188 31.746094 25.457031 31.683594 Z M 69.707031 32.660156 C 69.601562 32.886719 69.285156 33.050781 69.03125 33.152344 C 68.75 33.261719 68.421875 33.273438 68.363281 33.652344 C 68.304688 34.039062 68.597656 34.15625 68.875 34.292969 C 69.015625 34.359375 69.128906 34.484375 69.300781 34.621094 C 68.878906 35.113281 68.375 35.359375 67.84375 35.488281 C 66.929688 35.714844 65.996094 35.875 65.0625 36.035156 C 64.539062 36.125 64.128906 35.960938 63.988281 35.296875 C 64.53125 34.960938 65.089844 34.609375 65.683594 34.238281 C 65.5625 34.074219 65.46875 33.949219 65.339844 33.777344 C 65.585938 33.449219 65.84375 33.101562 66.164062 32.671875 C 65.5625 32.472656 65.128906 32.492188 64.683594 32.714844 C 64.273438 32.917969 63.84375 33.082031 63.285156 33.320312 C 63.308594 32.996094 63.324219 32.84375 63.335938 32.695312 C 62.734375 32.949219 62.132812 33.203125 61.53125 33.457031 C 61.453125 33.546875 61.371094 33.636719 61.179688 33.855469 C 61.992188 33.910156 62.683594 33.953125 63.433594 34.003906 C 63.464844 34.378906 63.488281 34.699219 63.515625 35.007812 C 62.230469 35.007812 61.019531 35.007812 59.625 35.007812 C 59.894531 34.535156 60.070312 34.222656 60.25 33.90625 C 59.761719 33.691406 59.90625 33.203125 59.695312 32.808594 C 60.238281 32.660156 60.761719 32.515625 61.390625 32.34375 C 61.144531 32.160156 60.878906 31.980469 61.003906 31.652344 C 60.039062 31.796875 59.074219 31.917969 58.117188 32.097656 C 57.585938 32.195312 57.109375 32.285156 56.789062 31.585938 C 57.148438 31.304688 57.496094 31.027344 57.933594 30.679688 C 56.878906 30.679688 55.941406 30.679688 54.972656 30.679688 C 55.074219 30.816406 55.144531 30.910156 55.265625 31.074219 C 55.144531 31.167969 55.03125 31.320312 54.898438 31.339844 C 54.527344 31.394531 54.140625 31.433594 53.765625 31.398438 C 52.953125 31.324219 52.234375 31.445312 51.722656 32.15625 C 51.238281 31.238281 50.371094 31.117188 49.390625 31.144531 C 49.359375 30.867188 49.328125 30.636719 49.300781 30.410156 C 48.347656 30.179688 48.347656 30.179688 47.8125 30.929688 C 47.546875 31.300781 47.011719 31.441406 46.585938 31.222656 C 46.527344 31.191406 46.550781 31 46.542969 30.875 C 45.941406 30.664062 45.382812 30.742188 44.882812 31.191406 C 44.621094 30.988281 44.425781 30.746094 44.179688 30.667969 C 43.90625 30.578125 43.585938 30.621094 43.289062 30.640625 C 42.136719 30.714844 40.988281 30.792969 39.839844 30.894531 C 39.03125 30.96875 38.222656 31.054688 37.425781 31.195312 C 37.226562 31.230469 37.0625 31.480469 36.890625 31.644531 C 36.65625 31.863281 36.433594 31.84375 36.210938 31.640625 L 36.222656 31.65625 C 35.957031 31.554688 35.699219 31.394531 35.425781 31.371094 C 35.003906 31.339844 34.554688 31.328125 34.15625 31.445312 C 33.734375 31.566406 33.359375 31.847656 32.953125 32.0625 C 33.132812 32.964844 33.136719 33.761719 32.675781 34.777344 C 32.425781 33.605469 32.800781 32.539062 32.179688 31.660156 C 32.074219 31.753906 31.960938 31.820312 31.96875 31.859375 C 32.207031 32.96875 31.777344 34.027344 31.722656 35.117188 C 31.671875 36.132812 31.484375 37.144531 31.734375 38.207031 C 33.222656 38.417969 34.621094 37.753906 36.183594 37.910156 C 35.46875 38.476562 34.730469 38.476562 34.027344 38.566406 C 33.605469 38.625 33.175781 38.664062 32.75 38.660156 C 32.066406 38.660156 31.480469 38.804688 31.121094 39.46875 C 31.074219 39.558594 30.917969 39.585938 30.800781 39.640625 C 30.980469 37.929688 31.195312 36.222656 31.328125 34.503906 C 31.402344 33.589844 31.335938 32.660156 31.332031 31.796875 C 30.820312 31.5625 30.667969 31.8125 30.523438 32.089844 C 30.390625 32.335938 30.210938 32.332031 30.011719 32.160156 L 30.019531 32.171875 C 29.902344 32.492188 29.800781 32.820312 29.65625 33.125 C 29.574219 33.308594 29.445312 33.550781 29.285156 33.601562 C 28.550781 33.828125 28.796875 34.378906 28.722656 34.914062 C 29.117188 34.996094 29.425781 35.058594 29.878906 35.15625 C 29.632812 35.402344 29.515625 35.601562 29.339844 35.675781 C 28.414062 36.097656 28.136719 36.855469 28.289062 37.769531 C 28.394531 38.417969 28.292969 38.949219 28.09375 39.589844 C 27.78125 40.609375 27.84375 41.746094 27.976562 42.914062 C 28.101562 42.683594 28.300781 42.46875 28.332031 42.226562 C 28.496094 41.042969 28.617188 39.855469 28.765625 38.566406 C 29.03125 39.230469 29.039062 39.4375 28.96875 40.023438 C 28.878906 40.742188 28.828125 41.46875 28.746094 42.1875 C 28.578125 43.71875 28.390625 45.242188 28.226562 46.773438 C 28.140625 47.535156 28.109375 48.308594 28.023438 49.074219 C 27.878906 50.347656 27.707031 51.617188 27.550781 52.890625 C 27.515625 53.1875 27.53125 53.492188 27.480469 53.785156 C 27.394531 54.320312 27.28125 54.855469 27.179688 55.390625 C 26.890625 55.074219 26.886719 54.71875 26.980469 54.320312 C 27.074219 53.90625 27.117188 53.480469 27.183594 53.058594 C 26.925781 53.039062 26.742188 53.023438 26.492188 53.007812 C 26.375 53.5 26.148438 54.050781 26.472656 54.640625 C 26.550781 54.78125 26.613281 55.003906 26.554688 55.132812 C 25.996094 56.371094 26.183594 57.746094 25.828125 59.019531 C 25.761719 59.265625 25.679688 59.535156 25.710938 59.78125 C 25.929688 61.457031 25.578125 63.101562 25.421875 64.757812 C 25.363281 65.386719 25.179688 66.003906 25.046875 66.652344 C 25.210938 66.753906 25.378906 66.855469 25.589844 66.984375 C 25.433594 68.109375 25.273438 69.246094 25.117188 70.386719 C 25.519531 70.300781 25.683594 70.535156 25.601562 70.875 C 25.46875 71.445312 25.3125 72.027344 25.0625 72.554688 C 24.765625 73.1875 24.625 73.820312 24.625 74.515625 C 24.628906 75.269531 24.679688 76.050781 24.019531 76.636719 C 23.949219 76.695312 24.054688 76.949219 24.078125 77.117188 C 24.078125 77.121094 24.078125 77.121094 24.074219 77.125 C 24.464844 77.707031 24.375 78.339844 24.257812 78.96875 C 24.136719 79.644531 24.015625 80.320312 23.84375 80.984375 C 23.722656 81.460938 23.8125 81.835938 23.96875 82.3125 C 24.242188 83.140625 24.230469 84.0625 24.324219 84.945312 C 24.367188 85.328125 24.382812 85.714844 24.410156 86.132812 C 24.628906 83.839844 24.8125 81.578125 25.070312 79.328125 C 25.332031 77.039062 25.203125 74.703125 26.007812 72.34375 C 26.242188 72.820312 26.183594 73.226562 26.140625 73.609375 C 25.914062 75.65625 25.550781 77.699219 25.460938 79.753906 C 25.378906 81.742188 24.769531 83.753906 25.558594 85.789062 C 25.746094 85.65625 25.941406 85.519531 26.136719 85.386719 C 26.210938 84.710938 26.300781 84.035156 26.347656 83.359375 C 26.378906 82.9375 26.292969 82.496094 26.796875 82.109375 C 26.839844 82.398438 26.894531 82.621094 26.898438 82.839844 C 26.921875 83.742188 26.910156 84.644531 26.941406 85.542969 C 26.976562 86.539062 27.082031 87.511719 27.765625 88.332031 C 28.039062 88.65625 27.992188 89.050781 27.671875 89.429688 C 27.449219 89.367188 27.214844 89.304688 27.050781 89.257812 C 26.917969 89.777344 26.851562 90.320312 26.644531 90.804688 C 26.292969 91.625 26.246094 91.609375 25.253906 91.441406 C 25.128906 91.421875 25 91.441406 24.875 91.449219 C 24.386719 91.46875 24.910156 92.226562 24.269531 92.222656 C 23.957031 92.222656 23.652344 92.613281 23.324219 92.789062 C 22.890625 93.027344 22.476562 92.855469 22.296875 92.375 C 22.207031 92.136719 22.082031 91.859375 22.125 91.628906 C 22.394531 90.203125 22.054688 88.796875 21.992188 87.390625 C 21.84375 83.933594 22.144531 80.515625 22.546875 77.09375 C 22.933594 73.808594 23.242188 70.511719 23.609375 67.226562 C 23.6875 66.5 23.976562 65.78125 23.957031 65.0625 C 23.90625 63.164062 24.1875 61.292969 24.324219 59.410156 C 24.40625 58.300781 24.527344 57.191406 24.65625 56.082031 C 24.953125 53.570312 25.269531 51.054688 25.574219 48.542969 C 25.6875 47.605469 25.878906 46.667969 25.894531 45.730469 C 25.914062 44.339844 26.101562 42.964844 25.996094 41.554688 C 25.929688 40.664062 26.3125 39.710938 26.621094 38.828125 C 26.851562 38.164062 26.914062 37.597656 26.433594 36.925781 C 25.65625 37.023438 24.855469 37.109375 24.058594 37.230469 C 22.703125 37.4375 21.335938 37.605469 20 37.914062 C 19.164062 38.109375 18.292969 38.289062 17.574219 38.863281 C 18.46875 38.6875 19.355469 38.375 20.25 38.367188 C 21.167969 38.359375 22.0625 38.246094 22.988281 38.085938 C 22.378906 38.878906 21.667969 39.457031 20.714844 39.585938 C 20.058594 39.671875 19.507812 39.941406 18.917969 40.214844 C 17.636719 40.8125 16.300781 41.296875 14.964844 41.773438 C 13.996094 42.117188 13.007812 42.414062 12.007812 42.664062 C 11.402344 42.816406 10.808594 42.964844 10.132812 42.660156 C 9.726562 42.480469 9.128906 42.707031 8.621094 42.769531 C 7.597656 42.894531 7.597656 42.898438 7.414062 41.828125 C 6.5 42.121094 7.035156 43.429688 6.105469 43.710938 C 5.382812 43.242188 6.027344 42.589844 5.847656 42.042969 C 5.070312 41.761719 4.195312 41.601562 3.808594 40.699219 C 3.765625 40.597656 3.628906 40.503906 3.515625 40.46875 C 2.511719 40.160156 1.984375 39.242188 1.210938 38.644531 C 1.042969 38.515625 0.90625 38.339844 0.78125 38.164062 C 0.105469 37.1875 0.296875 36.382812 1.34375 35.8125 C 2.671875 35.085938 4.113281 34.664062 5.558594 34.238281 C 8.785156 33.292969 12.066406 32.613281 15.378906 32.054688 C 15.503906 32.03125 15.628906 31.972656 15.753906 31.972656 C 19.082031 31.972656 22.289062 31.058594 25.5625 30.6875 C 25.90625 30.648438 26.25 30.632812 26.589844 30.589844 C 27.199219 30.507812 27.382812 30.300781 27.175781 29.746094 C 26.996094 29.277344 27.035156 28.835938 27.050781 28.359375 C 27.132812 25.90625 27.464844 23.480469 27.859375 21.058594 C 27.925781 20.640625 27.832031 20.199219 27.871094 19.773438 C 28.058594 17.679688 28.289062 15.589844 28.464844 13.492188 C 28.648438 11.308594 28.804688 9.125 28.949219 6.9375 C 29.054688 5.347656 29.132812 3.757812 29.207031 2.171875 C 29.234375 1.621094 29.484375 1.273438 30.007812 1.140625 C 30.71875 0.964844 31.421875 0.828125 32.171875 1.015625 C 33.75 1.417969 35.339844 1.777344 36.925781 2.15625 C 37.007812 2.175781 37.105469 2.179688 37.171875 2.226562 C 38.074219 2.859375 39.011719 3.457031 39.855469 4.160156 C 40.277344 4.511719 40.175781 5.101562 40.042969 5.621094 C 39.523438 7.703125 39.019531 9.785156 38.496094 11.863281 C 38.101562 13.445312 37.671875 15.023438 37.285156 16.609375 C 37.144531 17.1875 37.011719 17.785156 37.003906 18.375 C 36.984375 19.339844 36.808594 20.257812 36.449219 21.144531 C 36.007812 22.230469 35.730469 23.332031 35.734375 24.523438 C 35.742188 25.550781 35.589844 26.582031 35.5 27.609375 C 35.460938 28.074219 35.316406 28.507812 34.863281 28.839844 C 34.953125 28.089844 35.074219 27.339844 35.121094 26.585938 C 35.167969 25.859375 35.214844 25.117188 35.121094 24.398438 C 35.023438 23.660156 35.199219 22.882812 34.882812 21.929688 C 34.550781 22.65625 34.328125 23.148438 34.042969 23.78125 C 33.875 23.375 33.773438 23.128906 33.636719 22.792969 C 33.0625 24.476562 32.523438 26.039062 32.359375 27.710938 C 32.304688 28.257812 32.089844 28.792969 31.964844 29.335938 C 31.90625 29.59375 31.898438 29.875 32.234375 29.957031 C 32.550781 30.03125 32.722656 29.839844 32.777344 29.554688 C 32.980469 28.460938 33.167969 27.359375 33.363281 26.265625 C 33.386719 26.144531 33.429688 26.027344 33.492188 25.804688 C 34.027344 27.144531 33.265625 28.398438 33.492188 29.738281 C 34.296875 29.679688 35.011719 29.621094 35.730469 29.574219 C 38.175781 29.421875 40.621094 29.230469 43.066406 29.140625 C 45.855469 29.039062 48.648438 29.046875 51.441406 28.984375 C 52.511719 28.957031 53.582031 28.84375 54.652344 28.832031 C 57.359375 28.800781 60.066406 28.773438 62.773438 28.8125 C 64.40625 28.839844 66.039062 28.949219 67.664062 29.097656 C 69.332031 29.25 70.414062 31.15625 69.707031 32.660156 Z M 30.789062 39.648438 C 30.792969 39.644531 30.800781 39.644531 30.800781 39.640625 C 30.800781 39.648438 30.800781 39.652344 30.800781 39.65625 L 30.789062 39.648438 " fill-opacity="1" fill-rule="nonzero"/></g></g></g></g><g fill="#efefef" fill-opacity="1"><g transform="translate(69.166048, 205.874986)"><g><path d="M 33.8125 -26.0625 C 35.71875 -26.0625 37.085938 -25.445312 37.921875 -24.21875 C 38.753906 -23 39.171875 -21.40625 39.171875 -19.4375 C 39.171875 -18 39.082031 -16.554688 38.90625 -15.109375 C 38.738281 -13.671875 38.484375 -11.847656 38.140625 -9.640625 C 37.703125 -6.921875 37.484375 -5.148438 37.484375 -4.328125 C 37.484375 -3.585938 37.578125 -3.007812 37.765625 -2.59375 C 37.953125 -2.1875 38.316406 -1.984375 38.859375 -1.984375 C 39.503906 -1.984375 40.175781 -2.382812 40.875 -3.1875 C 41.570312 -3.988281 42.160156 -5.238281 42.640625 -6.9375 L 44.0625 -6.578125 C 43.894531 -5.628906 43.53125 -4.601562 42.96875 -3.5 C 42.40625 -2.394531 41.644531 -1.441406 40.6875 -0.640625 C 39.738281 0.160156 38.640625 0.5625 37.390625 0.5625 C 35.859375 0.5625 34.789062 0.160156 34.1875 -0.640625 C 33.59375 -1.441406 33.296875 -2.671875 33.296875 -4.328125 C 33.296875 -5.722656 33.570312 -7.96875 34.125 -11.0625 C 34.15625 -11.375 34.269531 -12.21875 34.46875 -13.59375 C 34.675781 -14.96875 34.835938 -16.238281 34.953125 -17.40625 C 35.078125 -18.582031 35.140625 -19.628906 35.140625 -20.546875 C 35.140625 -21.328125 34.953125 -22.039062 34.578125 -22.6875 C 34.203125 -23.332031 33.570312 -23.65625 32.6875 -23.65625 C 31.15625 -23.65625 29.664062 -22.535156 28.21875 -20.296875 C 26.78125 -18.054688 25.609375 -15.285156 24.703125 -11.984375 C 23.804688 -8.679688 23.359375 -5.585938 23.359375 -2.703125 C 23.359375 -2.054688 23.390625 -1.15625 23.453125 0 L 19.171875 0 C 19.140625 -0.300781 19.125 -0.742188 19.125 -1.328125 C 19.125 -2.453125 19.222656 -3.945312 19.421875 -5.8125 C 19.628906 -7.6875 19.851562 -9.539062 20.09375 -11.375 C 20.675781 -15.789062 20.96875 -18.800781 20.96875 -20.40625 C 20.96875 -22.570312 20.148438 -23.65625 18.515625 -23.65625 C 17.015625 -23.65625 15.539062 -22.535156 14.09375 -20.296875 C 12.65625 -18.054688 11.476562 -15.273438 10.5625 -11.953125 C 9.644531 -8.640625 9.1875 -5.554688 9.1875 -2.703125 C 9.1875 -2.054688 9.21875 -1.15625 9.28125 0 L 5 0 C 4.96875 -0.300781 4.953125 -0.742188 4.953125 -1.328125 C 4.953125 -2.171875 5.023438 -3.398438 5.171875 -5.015625 C 5.328125 -6.640625 5.578125 -8.8125 5.921875 -11.53125 L 6.53125 -16.828125 C 6.664062 -18.015625 6.765625 -18.921875 6.828125 -19.546875 C 6.898438 -20.179688 6.9375 -20.738281 6.9375 -21.21875 C 6.9375 -21.925781 6.84375 -22.484375 6.65625 -22.890625 C 6.46875 -23.304688 6.101562 -23.515625 5.5625 -23.515625 C 4.914062 -23.515625 4.25 -23.101562 3.5625 -22.28125 C 2.882812 -21.46875 2.3125 -20.226562 1.84375 -18.5625 L 0.40625 -18.875 C 0.570312 -19.820312 0.9375 -20.851562 1.5 -21.96875 C 2.0625 -23.09375 2.8125 -24.054688 3.75 -24.859375 C 4.6875 -25.660156 5.78125 -26.0625 7.03125 -26.0625 C 9.582031 -26.0625 10.859375 -24.363281 10.859375 -20.96875 C 10.859375 -20.007812 10.765625 -18.953125 10.578125 -17.796875 C 10.390625 -16.640625 10.210938 -15.601562 10.046875 -14.6875 L 10.203125 -14.6875 C 11.660156 -18.9375 13.171875 -21.894531 14.734375 -23.5625 C 16.296875 -25.226562 17.894531 -26.0625 19.53125 -26.0625 C 21.40625 -26.0625 22.78125 -25.460938 23.65625 -24.265625 C 24.539062 -23.078125 24.984375 -21.738281 24.984375 -20.25 C 24.984375 -19.363281 24.929688 -18.625 24.828125 -18.03125 C 24.734375 -17.4375 24.5 -16.375 24.125 -14.84375 L 24.28125 -14.84375 C 25.8125 -19.09375 27.375 -22.023438 28.96875 -23.640625 C 30.5625 -25.253906 32.175781 -26.0625 33.8125 -26.0625 Z M 33.8125 -26.0625 "/></g></g></g><g fill="#efefef" fill-opacity="1"><g transform="translate(113.842097, 205.874986)"><g><path d="M 19.6875 -26.0625 C 21.113281 -26.0625 22.148438 -25.429688 22.796875 -24.171875 C 23.441406 -22.910156 23.765625 -21.363281 23.765625 -19.53125 C 23.765625 -16.4375 23.148438 -13.195312 21.921875 -9.8125 C 20.703125 -6.4375 19.054688 -2.878906 16.984375 0.859375 C 14.535156 5.347656 12.207031 8.628906 10 10.703125 C 7.789062 12.785156 5.628906 13.828125 3.515625 13.828125 C 2.296875 13.828125 1.300781 13.519531 0.53125 12.90625 C -0.226562 12.289062 -0.609375 11.523438 -0.609375 10.609375 C -0.609375 9.890625 -0.390625 9.316406 0.046875 8.890625 C 0.492188 8.472656 0.972656 8.265625 1.484375 8.265625 C 2.191406 8.265625 2.738281 8.492188 3.125 8.953125 C 3.519531 9.410156 3.703125 10.0625 3.671875 10.90625 C 4.148438 11.144531 4.523438 11.265625 4.796875 11.265625 C 6.085938 11.335938 7.472656 10.519531 8.953125 8.8125 C 10.429688 7.113281 11.644531 5.453125 12.59375 3.828125 C 11.976562 -0.359375 11.128906 -4.578125 10.046875 -8.828125 C 8.960938 -13.078125 7.738281 -16.847656 6.375 -20.140625 C 5.96875 -21.023438 5.609375 -21.679688 5.296875 -22.109375 C 4.992188 -22.535156 4.570312 -22.75 4.03125 -22.75 C 3.445312 -22.75 2.976562 -22.390625 2.625 -21.671875 C 2.269531 -20.960938 2.09375 -19.992188 2.09375 -18.765625 C 2.09375 -18.191406 2.109375 -17.75 2.140625 -17.4375 L 0.515625 -17.234375 C 0.472656 -17.578125 0.453125 -18.085938 0.453125 -18.765625 C 0.453125 -20.773438 0.816406 -22.492188 1.546875 -23.921875 C 2.285156 -25.347656 3.488281 -26.0625 5.15625 -26.0625 C 6.6875 -26.0625 7.875 -25.523438 8.71875 -24.453125 C 9.570312 -23.378906 10.300781 -21.992188 10.90625 -20.296875 C 11.59375 -18.460938 12.207031 -16.484375 12.75 -14.359375 C 13.289062 -12.234375 13.9375 -9.503906 14.6875 -6.171875 C 14.894531 -5.179688 15.148438 -3.445312 15.453125 -0.96875 L 15.5625 -0.96875 C 17.1875 -3.820312 18.5625 -6.820312 19.6875 -9.96875 C 20.8125 -13.113281 21.375 -15.960938 21.375 -18.515625 C 21.375 -19.328125 21.296875 -20.054688 21.140625 -20.703125 C 20.984375 -21.347656 20.804688 -21.828125 20.609375 -22.140625 C 20.296875 -21.929688 19.867188 -21.828125 19.328125 -21.828125 C 18.710938 -21.828125 18.21875 -22.019531 17.84375 -22.40625 C 17.46875 -22.800781 17.28125 -23.269531 17.28125 -23.8125 C 17.28125 -24.53125 17.519531 -25.082031 18 -25.46875 C 18.476562 -25.863281 19.039062 -26.0625 19.6875 -26.0625 Z M 19.6875 -26.0625 "/></g></g></g><g fill="#efefef" fill-opacity="1"><g transform="translate(140.056126, 205.874986)"><g><path d="M 33.296875 -34.015625 C 31.734375 -33.878906 30.40625 -33.625 29.3125 -33.25 C 28.226562 -32.875 27.148438 -32.207031 26.078125 -31.25 C 25.015625 -30.300781 23.867188 -28.925781 22.640625 -27.125 L 17.234375 -19.171875 C 17.984375 -18.703125 18.613281 -18.1875 19.125 -17.625 C 19.632812 -17.0625 20.078125 -16.5 20.453125 -15.9375 C 20.828125 -15.375 21.082031 -15.007812 21.21875 -14.84375 L 26.578125 -7.234375 C 27.734375 -5.578125 28.703125 -4.351562 29.484375 -3.5625 C 30.265625 -2.78125 30.957031 -2.269531 31.5625 -2.03125 C 32.175781 -1.800781 32.910156 -1.6875 33.765625 -1.6875 L 33.65625 0 L 27.640625 0 C 26.785156 0 25.15625 -1.664062 22.75 -5 L 17.078125 -13.265625 C 15.691406 -15.335938 14.488281 -16.710938 13.46875 -17.390625 L 10.765625 -17.34375 L 10.15625 -6.0625 C 10.050781 -4.125 9.929688 -2.785156 9.796875 -2.046875 L 13.46875 -2.25 L 13.359375 0 L 2.09375 0 L 2.1875 -1.6875 C 3.382812 -1.71875 4.242188 -1.988281 4.765625 -2.5 C 5.296875 -3.007812 5.617188 -3.617188 5.734375 -4.328125 C 5.859375 -5.046875 5.953125 -6.253906 6.015625 -7.953125 L 7.1875 -29.984375 C 7.320312 -31.679688 7.441406 -32.90625 7.546875 -33.65625 L 3.875 -33.453125 L 3.984375 -35.703125 L 15.25 -35.703125 L 15.140625 -34.015625 C 14.085938 -33.984375 13.296875 -33.742188 12.765625 -33.296875 C 12.242188 -32.859375 11.890625 -32.253906 11.703125 -31.484375 C 11.515625 -30.722656 11.390625 -29.644531 11.328125 -28.25 L 10.859375 -19.375 L 14.84375 -19.375 L 21.625 -29.421875 C 22.882812 -31.328125 24.191406 -32.738281 25.546875 -33.65625 L 25.546875 -33.71875 L 22.34375 -33.609375 L 22.4375 -35.703125 L 33.40625 -35.703125 Z M 33.296875 -34.015625 "/></g></g></g><g fill="#efefef" fill-opacity="1"><g transform="translate(174.073161, 205.874986)"><g><path d="M 27.125 -7.65625 C 27.4375 -6.769531 27.710938 -5.78125 27.953125 -4.6875 C 28.191406 -3.601562 28.273438 -2.722656 28.203125 -2.046875 L 31.515625 -2.25 L 31.421875 0 L 20.34375 0 L 20.40625 -1.6875 C 22.4375 -1.71875 23.453125 -2.566406 23.453125 -4.234375 C 23.453125 -4.804688 23.316406 -5.570312 23.046875 -6.53125 L 21.578125 -11.328125 L 8.515625 -11.015625 L 6.484375 -5.5625 C 5.972656 -4.226562 5.441406 -3.054688 4.890625 -2.046875 L 8.71875 -2.25 L 8.625 0 L -0.71875 0 L -0.65625 -1.6875 C 0.53125 -1.71875 1.503906 -2.242188 2.265625 -3.265625 C 3.035156 -4.285156 3.863281 -5.882812 4.75 -8.0625 L 16.265625 -36.671875 L 17.390625 -36.671875 Z M 15.5625 -29.578125 L 13.40625 -23.875 C 13 -22.882812 11.960938 -20.160156 10.296875 -15.703125 L 9.328125 -13.203125 L 21.015625 -13.203125 C 19.078125 -19.296875 17.289062 -24.753906 15.65625 -29.578125 Z M 15.5625 -29.578125 "/></g></g></g><g fill="#efefef" fill-opacity="1"><g transform="translate(206.254197, 205.874986)"><g><path d="M 21.0625 -36.515625 C 22.894531 -36.515625 24.726562 -36.265625 26.5625 -35.765625 C 28.40625 -35.273438 30.039062 -34.609375 31.46875 -33.765625 L 31.359375 -36.15625 L 34.171875 -36.15625 L 33.5625 -24.484375 L 31.71875 -24.484375 C 31.6875 -27.609375 30.691406 -30.050781 28.734375 -31.8125 C 26.785156 -33.582031 24.296875 -34.46875 21.265625 -34.46875 C 18.753906 -34.46875 16.4375 -33.710938 14.3125 -32.203125 C 12.1875 -30.691406 10.484375 -28.609375 9.203125 -25.953125 C 7.929688 -23.304688 7.296875 -20.316406 7.296875 -16.984375 C 7.296875 -14.023438 7.828125 -11.378906 8.890625 -9.046875 C 9.960938 -6.722656 11.476562 -4.90625 13.4375 -3.59375 C 15.394531 -2.28125 17.628906 -1.625 20.140625 -1.625 C 21.609375 -1.625 23.128906 -1.835938 24.703125 -2.265625 C 26.285156 -2.691406 27.722656 -3.332031 29.015625 -4.1875 L 29.578125 -15.296875 L 26.015625 -15.09375 L 26.109375 -17.34375 L 37.484375 -17.34375 L 37.390625 -15.65625 C 36.234375 -15.65625 35.363281 -15.28125 34.78125 -14.53125 C 34.207031 -13.78125 33.847656 -13.03125 33.703125 -12.28125 C 33.566406 -11.539062 33.46875 -10.644531 33.40625 -9.59375 L 33 -1.84375 L 31.765625 -1.84375 C 30.335938 -1.84375 28.488281 -1.398438 26.21875 -0.515625 C 25.164062 -0.0976562 23.929688 0.222656 22.515625 0.453125 C 21.109375 0.691406 19.828125 0.8125 18.671875 0.8125 C 15.398438 0.8125 12.550781 0.160156 10.125 -1.140625 C 7.695312 -2.453125 5.816406 -4.347656 4.484375 -6.828125 C 3.160156 -9.316406 2.5 -12.257812 2.5 -15.65625 C 2.5 -19.125 3.203125 -22.457031 4.609375 -25.65625 C 6.023438 -28.851562 8.132812 -31.460938 10.9375 -33.484375 C 13.738281 -35.503906 17.113281 -36.515625 21.0625 -36.515625 Z M 21.0625 -36.515625 "/></g></g></g><g fill="#efefef" fill-opacity="1"><g transform="translate(244.657236, 205.874986)"><g/></g></g><g fill="#efefef" fill-opacity="1"><g transform="translate(258.070249, 205.874986)"><g><path d="M 37.640625 -34.015625 C 36.585938 -33.984375 35.796875 -33.753906 35.265625 -33.328125 C 34.734375 -32.898438 34.375 -32.320312 34.1875 -31.59375 C 34.007812 -30.863281 33.882812 -29.800781 33.8125 -28.40625 L 32.640625 -6.0625 C 32.535156 -4.125 32.414062 -2.785156 32.28125 -2.046875 L 35.953125 -2.25 L 35.859375 0 L 24.578125 0 L 24.6875 -1.6875 C 25.875 -1.71875 26.726562 -1.988281 27.25 -2.5 C 27.78125 -3.007812 28.101562 -3.617188 28.21875 -4.328125 C 28.34375 -5.046875 28.441406 -6.253906 28.515625 -7.953125 L 29.015625 -17.234375 L 10.703125 -17.03125 L 10.15625 -6.0625 C 10.050781 -4.125 9.929688 -2.785156 9.796875 -2.046875 L 13.46875 -2.25 L 13.359375 0 L 2.09375 0 L 2.1875 -1.6875 C 3.382812 -1.71875 4.242188 -1.988281 4.765625 -2.5 C 5.296875 -3.007812 5.609375 -3.601562 5.703125 -4.28125 C 5.804688 -4.957031 5.910156 -6.179688 6.015625 -7.953125 L 7.1875 -29.984375 C 7.320312 -31.679688 7.441406 -32.90625 7.546875 -33.65625 L 3.875 -33.453125 L 3.984375 -35.703125 L 15.25 -35.703125 L 15.140625 -34.015625 C 14.085938 -33.984375 13.296875 -33.753906 12.765625 -33.328125 C 12.242188 -32.898438 11.890625 -32.3125 11.703125 -31.5625 C 11.515625 -30.820312 11.390625 -29.753906 11.328125 -28.359375 L 10.8125 -19.28125 L 29.125 -19.28125 L 29.6875 -29.984375 C 29.71875 -31.140625 29.835938 -32.363281 30.046875 -33.65625 L 26.359375 -33.453125 L 26.46875 -35.703125 L 37.734375 -35.703125 Z M 37.640625 -34.015625 "/></g></g></g><g fill="#efefef" fill-opacity="1"><g transform="translate(297.493288, 205.874986)"><g><path d="M 6.78125 -26.0625 C 8.144531 -26.0625 9.171875 -25.632812 9.859375 -24.78125 C 10.554688 -23.9375 10.90625 -22.710938 10.90625 -21.109375 C 10.90625 -19.890625 10.632812 -17.34375 10.09375 -13.46875 C 10.0625 -13.15625 9.910156 -12.003906 9.640625 -10.015625 C 9.367188 -8.023438 9.234375 -6.367188 9.234375 -5.046875 C 9.234375 -4.234375 9.410156 -3.492188 9.765625 -2.828125 C 10.117188 -2.171875 10.738281 -1.84375 11.625 -1.84375 C 13.125 -1.84375 14.617188 -2.972656 16.109375 -5.234375 C 17.609375 -7.492188 18.84375 -10.269531 19.8125 -13.5625 C 20.78125 -16.863281 21.265625 -19.941406 21.265625 -22.796875 C 21.265625 -23.441406 21.234375 -24.34375 21.171875 -25.5 L 25.453125 -25.5 C 25.484375 -25.195312 25.5 -24.753906 25.5 -24.171875 C 25.5 -23.359375 25.410156 -22.097656 25.234375 -20.390625 C 25.066406 -18.691406 24.816406 -16.484375 24.484375 -13.765625 L 23.96875 -9.53125 C 23.9375 -9.09375 23.851562 -8.273438 23.71875 -7.078125 C 23.582031 -5.890625 23.515625 -4.957031 23.515625 -4.28125 C 23.515625 -2.789062 23.972656 -2.046875 24.890625 -2.046875 C 25.535156 -2.046875 26.195312 -2.441406 26.875 -3.234375 C 27.550781 -4.035156 28.128906 -5.269531 28.609375 -6.9375 L 30.046875 -6.625 C 29.867188 -5.675781 29.5 -4.640625 28.9375 -3.515625 C 28.375 -2.398438 27.625 -1.441406 26.6875 -0.640625 C 25.757812 0.160156 24.664062 0.5625 23.40625 0.5625 C 22.082031 0.5625 21.097656 0.15625 20.453125 -0.65625 C 19.804688 -1.476562 19.484375 -2.601562 19.484375 -4.03125 C 19.484375 -5.519531 19.789062 -7.796875 20.40625 -10.859375 L 20.25 -10.859375 C 18.613281 -6.472656 17.046875 -3.472656 15.546875 -1.859375 C 14.054688 -0.242188 12.410156 0.5625 10.609375 0.5625 C 8.703125 0.5625 7.296875 -0.0546875 6.390625 -1.296875 C 5.492188 -2.535156 5.046875 -4.125 5.046875 -6.0625 C 5.046875 -7.53125 5.128906 -9.007812 5.296875 -10.5 C 5.472656 -12 5.726562 -13.800781 6.0625 -15.90625 C 6.132812 -16.28125 6.253906 -17.070312 6.421875 -18.28125 C 6.597656 -19.488281 6.6875 -20.429688 6.6875 -21.109375 C 6.6875 -21.890625 6.59375 -22.484375 6.40625 -22.890625 C 6.21875 -23.304688 5.847656 -23.515625 5.296875 -23.515625 C 4.691406 -23.515625 4.066406 -23.113281 3.421875 -22.3125 C 2.773438 -21.507812 2.210938 -20.257812 1.734375 -18.5625 L 0.3125 -18.875 C 0.613281 -20.539062 1.316406 -22.15625 2.421875 -23.71875 C 3.523438 -25.28125 4.976562 -26.0625 6.78125 -26.0625 Z M 6.78125 -26.0625 "/></g></g></g><g fill="#efefef" fill-opacity="1"><g transform="translate(327.736313, 205.874986)"><g><path d="M 9.9375 -38.5 C 9.601562 -36.289062 9.234375 -33.421875 8.828125 -29.890625 L 8.515625 -26.671875 C 8.316406 -24.972656 7.925781 -21.148438 7.34375 -15.203125 L 7.5 -15.203125 C 8.6875 -19.585938 10.117188 -22.492188 11.796875 -23.921875 C 13.484375 -25.347656 15.332031 -26.0625 17.34375 -26.0625 C 19.550781 -26.0625 21.164062 -25.175781 22.1875 -23.40625 C 23.207031 -21.632812 23.71875 -19.390625 23.71875 -16.671875 C 23.71875 -11.609375 22.550781 -7.46875 20.21875 -4.25 C 17.894531 -1.039062 14.351562 0.5625 9.59375 0.5625 C 8.570312 0.5625 7.4375 0.472656 6.1875 0.296875 C 4.945312 0.128906 3.851562 -0.140625 2.90625 -0.515625 L 3.671875 -12.390625 C 4.316406 -21.941406 4.8125 -28.675781 5.15625 -32.59375 C 5.25 -33.8125 5.347656 -34.710938 5.453125 -35.296875 L 1.78125 -35.09375 L 1.984375 -37.125 C 4.023438 -37.125 5.488281 -37.242188 6.375 -37.484375 C 7.257812 -37.722656 7.957031 -38.0625 8.46875 -38.5 Z M 15.96875 -23.65625 C 14.4375 -23.65625 12.960938 -22.515625 11.546875 -20.234375 C 10.140625 -17.960938 8.992188 -15.148438 8.109375 -11.796875 C 7.222656 -8.453125 6.75 -5.316406 6.6875 -2.390625 C 7.050781 -2.023438 7.59375 -1.738281 8.3125 -1.53125 C 9.03125 -1.320312 9.742188 -1.21875 10.453125 -1.21875 C 13.710938 -1.257812 16.003906 -2.710938 17.328125 -5.578125 C 18.660156 -8.453125 19.328125 -11.828125 19.328125 -15.703125 C 19.328125 -21.003906 18.207031 -23.65625 15.96875 -23.65625 Z M 15.96875 -23.65625 "/></g></g></g><g fill="#efefef" fill-opacity="1"><g transform="translate(353.797347, 205.874986)"><g><path d="M 5.359375 -5.609375 C 6.140625 -5.609375 6.773438 -5.316406 7.265625 -4.734375 C 7.753906 -4.160156 8 -3.445312 8 -2.59375 C 8 -1.644531 7.691406 -0.835938 7.078125 -0.171875 C 6.472656 0.484375 5.765625 0.8125 4.953125 0.8125 C 4.171875 0.8125 3.515625 0.515625 2.984375 -0.078125 C 2.453125 -0.671875 2.1875 -1.410156 2.1875 -2.296875 C 2.1875 -3.210938 2.507812 -3.992188 3.15625 -4.640625 C 3.800781 -5.285156 4.535156 -5.609375 5.359375 -5.609375 Z M 5.359375 -5.609375 "/></g></g></g></svg>